<svg xmlns="http://www.w3.org/2000/svg" viewBox="0 0 24 24" role="img" aria-label="YSG Audio Tools">
  <defs>
    <linearGradient id="ysgi-down" gradientUnits="userSpaceOnUse" x1="12.00" y1="9.78" x2="12.00" y2="19.68"><stop offset="0" stop-color="#34E0E8"/><stop offset="1" stop-color="#2C6BE0"/></linearGradient>
    <linearGradient id="ysgi-upleft" gradientUnits="userSpaceOnUse" x1="12.00" y1="9.78" x2="3.43" y2="4.83"><stop offset="0" stop-color="#2C6BE0"/><stop offset="1" stop-color="#1B2A6B"/></linearGradient>
    <linearGradient id="ysgi-upright" gradientUnits="userSpaceOnUse" x1="12.00" y1="9.78" x2="20.57" y2="4.83"><stop offset="0" stop-color="#34E0E8"/><stop offset="1" stop-color="#2C6BE0"/></linearGradient>
    <radialGradient id="ysgi-core" cx="0.5" cy="0.5" r="0.5"><stop offset="0" stop-color="#34E0E8" stop-opacity="0.95"/><stop offset="0.55" stop-color="#34E0E8" stop-opacity="0.35"/><stop offset="1" stop-color="#34E0E8" stop-opacity="0"/></radialGradient>
    <linearGradient id="ysgi-bg" x1="0" y1="0" x2="0" y2="1"><stop offset="0" stop-color="#101827"/><stop offset="1" stop-color="#070A0F"/></linearGradient>
  </defs>
  <path d="M 7.00 0.60 L 17.00 0.60 Q 23.40 0.60 23.40 7.00 L 23.40 17.00 Q 23.40 23.40 17.00 23.40 L 7.00 23.40 Q 0.60 23.40 0.60 17.00 L 0.60 7.00 Q 0.60 0.60 7.00 0.60 Z" fill="url(#ysgi-bg)"/>
  <path d="M 7.25 0.85 L 16.75 0.85 Q 23.15 0.85 23.15 7.25 L 23.15 16.75 Q 23.15 23.15 16.75 23.15 L 7.25 23.15 Q 0.85 23.15 0.85 16.75 L 0.85 7.25 Q 0.85 0.85 7.25 0.85 Z" fill="none" stroke="#34E0E8" stroke-opacity="0.30" stroke-width="0.5"/>
  <g transform="translate(2.640 2.640) scale(0.780)">
    <circle cx="12.000" cy="9.785" r="7.4" fill="url(#ysgi-core)"/>
    <path d="M 9.400 9.785 L 11.400 19.685 L 12.600 19.685 L 14.600 9.785 Z" fill="url(#ysgi-down)" stroke="#34E0E8" stroke-opacity="0.42" stroke-width="0.38" stroke-linejoin="round"/>
    <path d="M 13.300 7.533 L 3.726 4.315 L 3.126 5.354 L 10.700 12.036 Z" fill="url(#ysgi-upleft)" stroke="#34E0E8" stroke-opacity="0.42" stroke-width="0.38" stroke-linejoin="round"/>
    <path d="M 13.300 12.036 L 20.874 5.354 L 20.274 4.315 L 10.700 7.533 Z" fill="url(#ysgi-upright)" stroke="#34E0E8" stroke-opacity="0.42" stroke-width="0.38" stroke-linejoin="round"/>
    <path d="M 13.300 12.036 L 20.874 5.354 L 20.274 4.315 L 10.700 7.533 Z" fill="none" stroke="#ffffff" stroke-opacity="0.20" stroke-width="0.4" stroke-linejoin="round"/>
    </g>
</svg>
