<svg xmlns="http://www.w3.org/2000/svg" viewBox="0 0 128 128" role="img" aria-label="Bus Routing Auditor">
  <defs>
    <linearGradient id="bg" x1="18" y1="10" x2="110" y2="118" gradientUnits="userSpaceOnUse">
      <stop stop-color="#17202c"/>
      <stop offset="1" stop-color="#080b11"/>
    </linearGradient>
    <linearGradient id="route" x1="20" y1="32" x2="108" y2="96" gradientUnits="userSpaceOnUse">
      <stop stop-color="#74edf0"/>
      <stop offset=".58" stop-color="#5290d4"/>
      <stop offset="1" stop-color="#9a8cf0"/>
    </linearGradient>
    <filter id="glow" x="-45%" y="-45%" width="190%" height="190%">
      <feGaussianBlur stdDeviation="4" result="blur"/>
      <feColorMatrix in="blur" type="matrix" values="0 0 0 0 .36 0 0 0 0 .82 0 0 0 0 .90 0 0 0 .5 0"/>
      <feBlend in="SourceGraphic"/>
    </filter>
  </defs>
  <rect x="6" y="6" width="116" height="116" rx="25" fill="url(#bg)" stroke="#2b5365" stroke-width="2"/>
  <path d="M31 36h25c9 0 14 5 14 14v28c0 9 5 14 14 14h13M31 64h66M31 92h25c9 0 14-5 14-14V50c0-9 5-14 14-14h13" fill="none" stroke="url(#route)" stroke-width="8" stroke-linecap="round" stroke-linejoin="round" filter="url(#glow)"/>
  <circle cx="31" cy="36" r="8" fill="#74edf0"/>
  <circle cx="31" cy="64" r="8" fill="#dbe3ec"/>
  <circle cx="31" cy="92" r="8" fill="#74edf0"/>
  <circle cx="97" cy="36" r="7" fill="#9a8cf0"/>
  <circle cx="97" cy="64" r="7" fill="#5290d4"/>
  <circle cx="97" cy="92" r="7" fill="#9a8cf0"/>
</svg>
